<svg width="100" height="100" viewBox="0 0 100 100" fill="none" xmlns="http://www.w3.org/2000/svg">
<path d="M53.7025 76.0899V38.6426H62.891L51.3315 23L76.8131 23C81.5929 23 85.7116 23.7837 89.1693 25.3511C92.627 26.868 95.2965 29.0674 97.1779 31.9494C99.0593 34.8315 100 38.2697 100 42.264C100 46.2079 99.0593 49.6208 97.1779 52.5028C95.2965 55.3848 92.627 57.6096 89.1693 59.177C85.7116 60.6938 81.5929 61.4522 76.8131 61.4522H60.567L66.0587 55.9157V76.0899H53.7025ZM66.0587 57.2809L60.567 51.441H76.1267C79.9403 51.441 82.7878 50.632 84.6692 49.014C86.5506 47.3961 87.4913 45.1461 87.4913 42.264C87.4913 39.3315 86.5506 37.0562 84.6692 35.4382C82.7878 33.8202 79.9403 33.0112 76.1267 33.0112H60.567L66.0587 27.1713V57.2809Z" fill="#F5BC15"/>
<path d="M24.1784 77C16.602 77 10.6782 74.9017 6.4069 70.7051C2.13563 66.5084 0 60.5169 0 52.7303V23H12.3562V52.2753C12.3562 57.3315 13.3986 60.9719 15.4833 63.1966C17.5681 65.4213 20.4919 66.5337 24.2547 66.5337C28.0175 66.5337 30.9413 65.4213 33.0261 63.1966C35.1108 60.9719 36.1532 57.3315 36.1532 52.2753V23L51.3315 23L48.3569 27.0254L39.772 38.6426H48.3569V52.7303C48.3569 60.5169 46.2212 66.5084 41.95 70.7051C37.6787 74.9017 31.7549 77 24.1784 77Z" fill="#F5BC15"/>
</svg>
