<svg width="413" height="40" viewBox="0 0 413 40" fill="none" xmlns="http://www.w3.org/2000/svg">
<g clip-path="url(#clip0_7_12)">
<path d="M15.72 34.48C13.56 34.48 11.5467 34.1333 9.68 33.44C7.84 32.72 6.24 31.7067 4.88 30.4C3.52 29.0933 2.45333 27.56 1.68 25.8C0.933333 24.04 0.56 22.1067 0.56 20C0.56 17.8933 0.933333 15.96 1.68 14.2C2.45333 12.44 3.52 10.9067 4.88 9.6C6.26667 8.29333 7.88 7.29333 9.72 6.6C11.56 5.88 13.5733 5.52 15.76 5.52C18.1867 5.52 20.3733 5.94667 22.32 6.8C24.2933 7.62667 25.9467 8.85333 27.28 10.48L23.12 14.32C22.16 13.2267 21.0933 12.4133 19.92 11.88C18.7467 11.32 17.4667 11.04 16.08 11.04C14.7733 11.04 13.5733 11.2533 12.48 11.68C11.3867 12.1067 10.44 12.72 9.64 13.52C8.84 14.32 8.21333 15.2667 7.76 16.36C7.33333 17.4533 7.12 18.6667 7.12 20C7.12 21.3333 7.33333 22.5467 7.76 23.64C8.21333 24.7333 8.84 25.68 9.64 26.48C10.44 27.28 11.3867 27.8933 12.48 28.32C13.5733 28.7467 14.7733 28.96 16.08 28.96C17.4667 28.96 18.7467 28.6933 19.92 28.16C21.0933 27.6 22.16 26.76 23.12 25.64L27.28 29.48C25.9467 31.1067 24.2933 32.3467 22.32 33.2C20.3733 34.0533 18.1733 34.48 15.72 34.48ZM40.7138 34.32C38.4204 34.32 36.3804 33.84 34.5938 32.88C32.8338 31.92 31.4338 30.6133 30.3938 28.96C29.3804 27.28 28.8738 25.3733 28.8738 23.24C28.8738 21.08 29.3804 19.1733 30.3938 17.52C31.4338 15.84 32.8338 14.5333 34.5938 13.6C36.3804 12.64 38.4204 12.16 40.7138 12.16C42.9804 12.16 45.0071 12.64 46.7938 13.6C48.5804 14.5333 49.9804 15.8267 50.9938 17.48C52.0071 19.1333 52.5138 21.0533 52.5138 23.24C52.5138 25.3733 52.0071 27.28 50.9938 28.96C49.9804 30.6133 48.5804 31.92 46.7938 32.88C45.0071 33.84 42.9804 34.32 40.7138 34.32ZM40.7138 29.2C41.7538 29.2 42.6871 28.96 43.5138 28.48C44.3404 28 44.9938 27.32 45.4738 26.44C45.9538 25.5333 46.1938 24.4667 46.1938 23.24C46.1938 21.9867 45.9538 20.92 45.4738 20.04C44.9938 19.16 44.3404 18.48 43.5138 18C42.6871 17.52 41.7538 17.28 40.7138 17.28C39.6738 17.28 38.7404 17.52 37.9138 18C37.0871 18.48 36.4204 19.16 35.9138 20.04C35.4338 20.92 35.1938 21.9867 35.1938 23.24C35.1938 24.4667 35.4338 25.5333 35.9138 26.44C36.4204 27.32 37.0871 28 37.9138 28.48C38.7404 28.96 39.6738 29.2 40.7138 29.2ZM69.7647 12.16C71.4714 12.16 72.9914 12.5067 74.3247 13.2C75.6847 13.8667 76.7514 14.9067 77.5247 16.32C78.298 17.7067 78.6847 19.4933 78.6847 21.68V34H72.4447V22.64C72.4447 20.9067 72.058 19.6267 71.2847 18.8C70.538 17.9733 69.4714 17.56 68.0847 17.56C67.098 17.56 66.2047 17.7733 65.4047 18.2C64.6314 18.6 64.018 19.2267 63.5647 20.08C63.138 20.9333 62.9247 22.0267 62.9247 23.36V34H56.6847V12.48H62.6447V18.44L61.5247 16.64C62.298 15.2 63.4047 14.0933 64.8447 13.32C66.2847 12.5467 67.9247 12.16 69.7647 12.16ZM93.1409 34.32C90.6076 34.32 88.6343 33.68 87.2209 32.4C85.8076 31.0933 85.1009 29.16 85.1009 26.6V7.72H91.3409V26.52C91.3409 27.4267 91.5809 28.1333 92.0609 28.64C92.5409 29.12 93.1943 29.36 94.0209 29.36C95.0076 29.36 95.8476 29.0933 96.5409 28.56L98.2209 32.96C97.5809 33.4133 96.8076 33.76 95.9009 34C95.0209 34.2133 94.1009 34.32 93.1409 34.32ZM81.7809 17.76V12.96H96.7009V17.76H81.7809ZM101.724 34V12.48H107.684V18.56L106.844 16.8C107.484 15.28 108.51 14.1333 109.924 13.36C111.337 12.56 113.057 12.16 115.084 12.16V17.92C114.817 17.8933 114.577 17.88 114.364 17.88C114.15 17.8533 113.924 17.84 113.684 17.84C111.977 17.84 110.59 18.3333 109.524 19.32C108.484 20.28 107.964 21.7867 107.964 23.84V34H101.724ZM130.588 34V29.8L130.188 28.88V21.36C130.188 20.0267 129.774 18.9867 128.948 18.24C128.148 17.4933 126.908 17.12 125.228 17.12C124.081 17.12 122.948 17.3067 121.828 17.68C120.734 18.0267 119.801 18.5067 119.028 19.12L116.788 14.76C117.961 13.9333 119.374 13.2933 121.028 12.84C122.681 12.3867 124.361 12.16 126.068 12.16C129.348 12.16 131.894 12.9333 133.708 14.48C135.521 16.0267 136.428 18.44 136.428 21.72V34H130.588ZM124.028 34.32C122.348 34.32 120.908 34.04 119.708 33.48C118.508 32.8933 117.588 32.1067 116.948 31.12C116.308 30.1333 115.988 29.0267 115.988 27.8C115.988 26.52 116.294 25.4 116.908 24.44C117.548 23.48 118.548 22.7333 119.908 22.2C121.268 21.64 123.041 21.36 125.228 21.36H130.948V25H125.908C124.441 25 123.428 25.24 122.868 25.72C122.334 26.2 122.068 26.8 122.068 27.52C122.068 28.32 122.374 28.96 122.988 29.44C123.628 29.8933 124.494 30.12 125.588 30.12C126.628 30.12 127.561 29.88 128.388 29.4C129.214 28.8933 129.814 28.16 130.188 27.2L131.148 30.08C130.694 31.4667 129.868 32.52 128.668 33.24C127.468 33.96 125.921 34.32 124.028 34.32ZM152.632 34.32C150.312 34.32 148.245 33.8533 146.432 32.92C144.618 31.96 143.192 30.64 142.152 28.96C141.138 27.28 140.632 25.3733 140.632 23.24C140.632 21.08 141.138 19.1733 142.152 17.52C143.192 15.84 144.618 14.5333 146.432 13.6C148.245 12.64 150.312 12.16 152.632 12.16C154.898 12.16 156.872 12.64 158.552 13.6C160.232 14.5333 161.472 15.88 162.272 17.64L157.432 20.24C156.872 19.2267 156.165 18.48 155.312 18C154.485 17.52 153.578 17.28 152.592 17.28C151.525 17.28 150.565 17.52 149.712 18C148.858 18.48 148.178 19.16 147.672 20.04C147.192 20.92 146.952 21.9867 146.952 23.24C146.952 24.4933 147.192 25.56 147.672 26.44C148.178 27.32 148.858 28 149.712 28.48C150.565 28.96 151.525 29.2 152.592 29.2C153.578 29.2 154.485 28.9733 155.312 28.52C156.165 28.04 156.872 27.28 157.432 26.24L162.272 28.88C161.472 30.6133 160.232 31.96 158.552 32.92C156.872 33.8533 154.898 34.32 152.632 34.32ZM174.977 34.32C172.444 34.32 170.47 33.68 169.057 32.4C167.644 31.0933 166.937 29.16 166.937 26.6V7.72H173.177V26.52C173.177 27.4267 173.417 28.1333 173.897 28.64C174.377 29.12 175.03 29.36 175.857 29.36C176.844 29.36 177.684 29.0933 178.377 28.56L180.057 32.96C179.417 33.4133 178.644 33.76 177.737 34C176.857 34.2133 175.937 34.32 174.977 34.32ZM163.617 17.76V12.96H178.537V17.76H163.617ZM193.136 34.32C190.842 34.32 188.802 33.84 187.016 32.88C185.256 31.92 183.856 30.6133 182.816 28.96C181.802 27.28 181.296 25.3733 181.296 23.24C181.296 21.08 181.802 19.1733 182.816 17.52C183.856 15.84 185.256 14.5333 187.016 13.6C188.802 12.64 190.842 12.16 193.136 12.16C195.402 12.16 197.429 12.64 199.216 13.6C201.002 14.5333 202.402 15.8267 203.416 17.48C204.429 19.1333 204.936 21.0533 204.936 23.24C204.936 25.3733 204.429 27.28 203.416 28.96C202.402 30.6133 201.002 31.92 199.216 32.88C197.429 33.84 195.402 34.32 193.136 34.32ZM193.136 29.2C194.176 29.2 195.109 28.96 195.936 28.48C196.762 28 197.416 27.32 197.896 26.44C198.376 25.5333 198.616 24.4667 198.616 23.24C198.616 21.9867 198.376 20.92 197.896 20.04C197.416 19.16 196.762 18.48 195.936 18C195.109 17.52 194.176 17.28 193.136 17.28C192.096 17.28 191.162 17.52 190.336 18C189.509 18.48 188.842 19.16 188.336 20.04C187.856 20.92 187.616 21.9867 187.616 23.24C187.616 24.4667 187.856 25.5333 188.336 26.44C188.842 27.32 189.509 28 190.336 28.48C191.162 28.96 192.096 29.2 193.136 29.2ZM209.107 34V12.48H215.067V18.56L214.227 16.8C214.867 15.28 215.893 14.1333 217.307 13.36C218.72 12.56 220.44 12.16 222.467 12.16V17.92C222.2 17.8933 221.96 17.88 221.747 17.88C221.533 17.8533 221.307 17.84 221.067 17.84C219.36 17.84 217.973 18.3333 216.907 19.32C215.867 20.28 215.347 21.7867 215.347 23.84V34H209.107ZM238.101 34V6H244.581V28.72H258.621V34H238.101ZM272.365 34.32C269.911 34.32 267.751 33.84 265.885 32.88C264.045 31.92 262.618 30.6133 261.605 28.96C260.591 27.28 260.085 25.3733 260.085 23.24C260.085 21.08 260.578 19.1733 261.565 17.52C262.578 15.84 263.951 14.5333 265.685 13.6C267.418 12.64 269.378 12.16 271.565 12.16C273.671 12.16 275.565 12.6133 277.245 13.52C278.951 14.4 280.298 15.68 281.285 17.36C282.271 19.0133 282.765 21 282.765 23.32C282.765 23.56 282.751 23.84 282.725 24.16C282.698 24.4533 282.671 24.7333 282.645 25H265.165V21.36H279.365L276.965 22.44C276.965 21.32 276.738 20.3467 276.285 19.52C275.831 18.6933 275.205 18.0533 274.405 17.6C273.605 17.12 272.671 16.88 271.605 16.88C270.538 16.88 269.591 17.12 268.765 17.6C267.965 18.0533 267.338 18.7067 266.885 19.56C266.431 20.3867 266.205 21.3733 266.205 22.52V23.48C266.205 24.6533 266.458 25.6933 266.965 26.6C267.498 27.48 268.231 28.16 269.165 28.64C270.125 29.0933 271.245 29.32 272.525 29.32C273.671 29.32 274.671 29.1467 275.525 28.8C276.405 28.4533 277.205 27.9333 277.925 27.24L281.245 30.84C280.258 31.96 279.018 32.8267 277.525 33.44C276.031 34.0267 274.311 34.32 272.365 34.32ZM292.368 34L283.328 12.48H289.768L297.288 31H294.088L301.888 12.48H307.888L298.808 34H292.368ZM320.529 34.32C318.075 34.32 315.915 33.84 314.049 32.88C312.209 31.92 310.782 30.6133 309.769 28.96C308.755 27.28 308.249 25.3733 308.249 23.24C308.249 21.08 308.742 19.1733 309.729 17.52C310.742 15.84 312.115 14.5333 313.849 13.6C315.582 12.64 317.542 12.16 319.729 12.16C321.835 12.16 323.729 12.6133 325.409 13.52C327.115 14.4 328.462 15.68 329.449 17.36C330.435 19.0133 330.929 21 330.929 23.32C330.929 23.56 330.915 23.84 330.889 24.16C330.862 24.4533 330.835 24.7333 330.809 25H313.329V21.36H327.529L325.129 22.44C325.129 21.32 324.902 20.3467 324.449 19.52C323.995 18.6933 323.369 18.0533 322.569 17.6C321.769 17.12 320.835 16.88 319.769 16.88C318.702 16.88 317.755 17.12 316.929 17.6C316.129 18.0533 315.502 18.7067 315.049 19.56C314.595 20.3867 314.369 21.3733 314.369 22.52V23.48C314.369 24.6533 314.622 25.6933 315.129 26.6C315.662 27.48 316.395 28.16 317.329 28.64C318.289 29.0933 319.409 29.32 320.689 29.32C321.835 29.32 322.835 29.1467 323.689 28.8C324.569 28.4533 325.369 27.9333 326.089 27.24L329.409 30.84C328.422 31.96 327.182 32.8267 325.689 33.44C324.195 34.0267 322.475 34.32 320.529 34.32ZM335.083 34V4.32H341.323V34H335.083Z" fill="white"/>
<path d="M382.163 34V14.25H386.982L380.92 6L394.283 6C396.79 6 398.95 6.41333 400.763 7.24C402.577 8.04 403.977 9.2 404.963 10.72C405.95 12.24 406.443 14.0533 406.443 16.16C406.443 18.24 405.95 20.04 404.963 21.56C403.977 23.08 402.577 24.2533 400.763 25.08C398.95 25.88 396.79 26.28 394.283 26.28H385.763L388.643 23.36V34H382.163ZM388.643 24.08L385.763 21H393.923C395.923 21 397.417 20.5733 398.403 19.72C399.39 18.8667 399.883 17.68 399.883 16.16C399.883 14.6133 399.39 13.4133 398.403 12.56C397.417 11.7067 395.923 11.28 393.923 11.28H385.763L388.643 8.2V24.08Z" fill="#F5BC15"/>
<path d="M366.68 34.48C362.707 34.48 359.6 33.3733 357.36 31.16C355.12 28.9467 354 25.7867 354 21.68V6H360.48V21.44C360.48 24.1067 361.027 26.0267 362.12 27.2C363.213 28.3733 364.747 28.96 366.72 28.96C368.693 28.96 370.227 28.3733 371.32 27.2C372.413 26.0267 372.96 24.1067 372.96 21.44V6L380.92 6L379.36 8.123L374.858 14.25H379.36V21.68C379.36 25.7867 378.24 28.9467 376 31.16C373.76 33.3733 370.653 34.48 366.68 34.48Z" fill="#F5BC15"/>
</g>
<defs>
<clipPath id="clip0_7_12">
<rect width="413" height="40" fill="white"/>
</clipPath>
</defs>
</svg>
